<?xml version="1.0" encoding="UTF-8"?>
<svg width="802px" height="872px" viewBox="0 0 802 872" version="1.1" xmlns="http://www.w3.org/2000/svg" xmlns:xlink="http://www.w3.org/1999/xlink">
    <!-- Generator: Sketch 48.2 (47327) - http://www.bohemiancoding.com/sketch -->
    <title>ngColombia</title>
    <desc>Created with Sketch.</desc>
    <defs></defs>
    <g id="Page-1" stroke="none" stroke-width="1" fill="none" fill-rule="evenodd">
        <g id="ngColombia">
            <polygon id="Shape" fill="#8C1876" fill-rule="nonzero" points="401.5 0 1 157.27 53.4081633 660.3675 401.5 872 748.591837 660.3675 802 157.27"></polygon>
            <path d="M793.709534,154.40715 L748.873691,181.347242 L400.032683,45 L51.0082746,182.399421 L6.62774616,154.667389 L400.5,0 L793.709534,154.40715 Z M800.21501,164.664499 L747.591837,660.3675 L406,868.646482 L406,820.34152 L709.302645,635.408628 L755.21671,191.702205 L800.21501,164.664499 Z M0.825211735,165.191704 L44.8503393,192.701657 L90.7627218,635.408628 L394,820.301663 L394,868.048137 L52.4081633,660.3675 L0.825211735,165.191704 Z" id="Combined-Shape" fill="#44A0C1" fill-rule="nonzero"></path>
            <path d="M793.709534,154.40715 L748.873691,181.347242 L400.032683,45 L51.0082746,182.399421 L6.62774616,154.667389 L400.5,0 L793.709534,154.40715 Z" id="Combined-Shape" fill="#63BED3" fill-rule="nonzero"></path>
            <path d="M800.21501,164.664499 L747.591837,660.3675 L406,868.646482 L406,820.34152 L709.302645,635.408628 L755.21671,191.702205 L800.21501,164.664499 Z" id="Combined-Shape" fill="#5CADC6" fill-rule="nonzero"></path>
            <path d="M107.471988,630.307338 L145.915831,607.207947 L400.039176,762.269327 L654.30643,607.120136 L691.568843,630.404276 L400.01959,809.37184 L107.471988,630.307338 Z M101.87917,626.884049 L101.300962,626.530136 L101.236981,625.911785 L101.87917,626.884049 Z M100.84586,622.131817 L56.3263524,191.874758 L394.441548,58.2052083 L394.441548,103.198196 L101.039176,218.417681 L139.982513,598.616143 L100.84586,622.131817 Z M698.307947,622.472245 L660.111074,598.60419 L700.039176,218.572641 L404.739472,102.842088 L404.739472,57.8659455 L743.712828,191.874758 L698.307947,622.472245 Z" id="Combined-Shape" fill="#1B5A7D" fill-rule="nonzero" transform="translate(400.019590, 433.618893) scale(-1, 1) translate(-400.019590, -433.618893) "></path>
            <path d="M450.117141,622.131817 L405.597633,191.874758 L743.712828,58.2052083 L743.712828,103.198196 L450.310456,218.417681 L489.253794,598.616143 L450.117141,622.131817 Z M450.508261,625.911785 L450.825805,626.392541 L450.572243,626.530136 L450.508261,625.911785 Z" id="Combined-Shape" fill="#3990B2" fill-rule="nonzero" transform="translate(574.655230, 342.367672) scale(-1, 1) translate(-574.655230, -342.367672) "></path>
            <path d="M349.894827,622.472245 L311.697954,598.60419 L351.626056,218.572641 L56.3263524,102.842088 L56.3263524,57.8659455 L395.299708,191.874758 L349.894827,622.472245 Z" id="Combined-Shape" fill="#357E9E" fill-rule="nonzero" transform="translate(225.813030, 340.169095) scale(-1, 1) translate(-225.813030, -340.169095) "></path>
            <path d="M209.753001,514.528 C209.753001,501.718 218.659001,492.69 231.286001,492.69 C241.473001,492.69 249.159001,498.424 251.599001,507.696 L240.131001,507.696 C238.362001,504.036 235.129001,502.206 231.164001,502.206 C224.759001,502.206 220.367001,506.964 220.367001,514.528 C220.367001,522.092 224.759001,526.85 231.164001,526.85 C235.129001,526.85 238.362001,525.02 240.131001,521.36 L251.599001,521.36 C249.159001,530.632 241.473001,536.305 231.286001,536.305 C218.659001,536.305 209.753001,527.338 209.753001,514.528 Z M307.855,514.467 C307.855,527.338 298.095,536.427 285.956,536.427 C273.817,536.427 263.935,527.338 263.935,514.467 C263.935,501.596 273.817,492.568 285.956,492.568 C298.156,492.568 307.855,501.596 307.855,514.467 Z M274.61,514.467 C274.61,521.97 279.002,526.911 285.956,526.911 C292.788,526.911 297.241,521.97 297.241,514.467 C297.241,506.842 292.788,502.023 285.956,502.023 C279.002,502.023 274.61,506.842 274.61,514.467 Z M321.35,493.178 L331.781,493.178 L331.781,527.948 L345.445,527.948 L345.445,536 L321.35,536 L321.35,493.178 Z M400.298,514.467 C400.298,527.338 390.538,536.427 378.399,536.427 C366.26,536.427 356.378,527.338 356.378,514.467 C356.378,501.596 366.26,492.568 378.399,492.568 C390.599,492.568 400.298,501.596 400.298,514.467 Z M367.053,514.467 C367.053,521.97 371.445,526.911 378.399,526.911 C385.231,526.911 389.684,521.97 389.684,514.467 C389.684,506.842 385.231,502.023 378.399,502.023 C371.445,502.023 367.053,506.842 367.053,514.467 Z M413.793,536 L413.793,493.178 L426.115,493.178 L438.132,522.824 L450.027,493.178 L462.288,493.178 L462.288,536 L451.857,536 L451.857,510.319 L442.28,536 L433.862,536 L424.224,510.258 L424.224,536 L413.793,536 Z M501.098,522.946 C501.098,519.896 498.963,518.127 495.486,518.127 L487.922,518.127 L487.922,527.582 L495.608,527.582 C499.085,527.582 501.098,525.996 501.098,522.946 Z M500.061,506.049 C500.061,503.121 498.17,501.535 494.754,501.535 L487.922,501.535 L487.922,510.502 L494.754,510.502 C498.17,510.502 500.061,508.977 500.061,506.049 Z M511.651,524.349 C511.651,531.425 506.466,536 497.438,536 L477.491,536 L477.491,493.178 L496.767,493.178 C505.49,493.178 510.675,497.509 510.675,504.28 C510.675,509.465 507.564,512.82 503.416,514.04 C508.418,515.077 511.651,519.469 511.651,524.349 Z M525.39,536 L525.39,493.178 L535.821,493.178 L535.821,536 L525.39,536 Z M580.303999,536 L577.741999,528.436 L561.759999,528.436 L559.197999,536 L548.278999,536 L563.772999,493.178 L575.850999,493.178 L591.344999,536 L580.303999,536 Z M575.057999,520.384 L569.750999,504.707 L564.504999,520.384 L575.057999,520.384 Z" id="COLOMBIA" fill="#FFFFFF"></path>
            <path d="M331.954,283.566 L377.611,283.566 L377.611,471 L331.954,471 L255.592,355.389 L255.592,471 L209.935,471 L209.935,283.566 L255.592,283.566 L331.954,399.711 L331.954,283.566 Z M500.295,281.43 C545.151,281.43 577.725,304.392 587.604,342.84 L537.141,342.84 C530.199,330.291 517.383,323.616 500.295,323.616 C470.925,323.616 451.434,344.442 451.434,377.016 C451.434,411.726 471.192,432.018 504.033,432.018 C526.728,432.018 542.481,420.003 549.423,398.91 L491.484,398.91 L491.484,365.268 L590.808,365.268 L590.808,407.721 C581.196,440.028 549.957,472.335 500.562,472.335 C444.492,472.335 404.976,433.086 404.976,377.016 C404.976,320.946 444.225,281.43 500.295,281.43 Z" id="NG" fill="#FFFFFF"></path>
        </g>
    </g>
</svg>