<?xml version="1.0" encoding="utf-8"?>
<!-- Generator: Adobe Illustrator 22.0.1, SVG Export Plug-In . SVG Version: 6.00 Build 0)  -->
<svg version="1.1" id="Logo" xmlns="http://www.w3.org/2000/svg" xmlns:xlink="http://www.w3.org/1999/xlink" x="0px" y="0px"
	 width="697px" height="584.007px" viewBox="0 0 697 584.007" style="enable-background:new 0 0 697 584.007;" xml:space="preserve"
	>
<style type="text/css">
	.st0{fill:#DC1E32;}
	.st1{fill:#C32030;}
	.st2{fill:#2F3C42;}
	.st3{fill:#1E2427;}
	.st4{fill:#192838;}
	.st5{fill:#FFFFFF;}
	.st6{fill:#B4B4B3;}
	.st7{fill:#263238;}
	.st8{fill-rule:evenodd;clip-rule:evenodd;fill:#263238;}
</style>
<g>
	<g>
		<polygon class="st0" points="346.667,30.997 101.99,117.098 140.661,437.64 346.667,551.003 554.337,436.106 592.994,115.574 		
			"/>
	</g>
</g>
<polygon class="st1" points="347.492,31.28 347.492,550.546 554.337,436.106 592.994,115.574 "/>
<path class="st2" d="M104.993,329.528C81.488,327.932,0,323.088,0,323.088l31.473-51.468L4.628,219.005
	c0,0,104.226,6.944,104.866,6.986c2.796,0.164,4.96,2.516,4.894,5.357l-2.34,93.185c-0.03,1.416-0.635,2.747-1.706,3.731
	c-0.982,0.894-2.235,1.381-3.54,1.381C106.798,329.644,106.169,329.608,104.993,329.528z"/>
<path class="st2" d="M592.007,329.528c23.506-1.595,104.994-6.44,104.994-6.44l-31.473-51.468l26.844-52.616
	c0,0-104.226,6.944-104.866,6.986c-2.795,0.164-4.959,2.516-4.894,5.357l2.341,93.185c0.029,1.416,0.634,2.747,1.705,3.731
	c0.982,0.894,2.235,1.381,3.54,1.381C590.201,329.644,590.832,329.608,592.007,329.528z"/>
<path class="st3" d="M44.735,270.3l77.573-29.958l-4.465,35.016L44.735,270.3z"/>
<path class="st3" d="M651.985,270.3l-77.573-29.958l4.464,35.016L651.985,270.3z"/>
<g>
	<path class="st4" d="M349.215,38.096l236.603,81.982l-37.411,313.993L348.995,542.987L149.583,434.072l-37.409-313.978
		L349.215,38.096 M349.225,0L72.995,95.553l43.037,361.213l232.963,127.24l232.963-127.24l43.037-361.213L349.225,0L349.225,0z"/>
</g>
<g>
	<g>
		<path class="st5" d="M195.13,188.618c-2.393-13.432-4.786-26.864-7.178-40.295c-2.897,0.516-5.792,1.046-8.686,1.589
			c2.518,13.409,5.036,26.818,7.554,40.227C189.588,189.618,192.358,189.111,195.13,188.618z M204.483,187.053
			c2.775-0.465,5.553-0.916,8.331-1.355c-1.181-7.482-2.362-14.965-3.542-22.447c9.767,6.393,19.332,12.94,28.691,19.632
			c-1.79-13.841-3.58-27.682-5.37-41.523c-2.922,0.378-5.843,0.769-8.763,1.175c1.042,7.503,2.083,15.006,3.125,22.509
			c-9.59-6.573-19.385-12.996-29.379-19.261C199.878,159.54,202.181,173.297,204.483,187.053z M185.995,431.007l61-1l102-245v-118
			L185.995,431.007z"/>
	</g>
</g>
<g>
	<g>
		<path class="st6" d="M462.148,181.411c4.612,0.554,8.763-0.532,12.508-3.277c3.728-2.763,5.932-6.391,6.563-10.919
			c1.138-8.182,2.276-16.363,3.414-24.545c-2.928-0.407-5.858-0.801-8.789-1.18c-1.06,8.183-2.12,16.367-3.181,24.551
			c-0.578,4.398-4.984,7.646-9.548,7.099c-4.608-0.554-8.076-4.72-7.594-9.157c0.907-8.202,1.814-16.404,2.721-24.606
			c-2.936-0.325-5.873-0.635-8.811-0.933c-0.831,8.219-1.662,16.437-2.493,24.656c-0.459,4.548,0.822,8.595,3.787,12.161
			C453.693,178.812,457.484,180.851,462.148,181.411z M492,185.115c1.251-1.906,2.508-3.808,3.771-5.709
			c4.767,0.749,9.53,1.536,14.288,2.361c0.585,2.206,1.164,4.412,1.736,6.619c3.004,0.53,6.005,1.076,9.005,1.637
			c-3.729-14.862-7.758-29.71-12.086-44.537c-8.858,12.647-17.435,25.413-25.728,38.287
			C485.992,184.206,488.997,184.653,492,185.115z M505.54,164.855c0.82,3.061,1.627,6.122,2.422,9.184
			c-2.573-0.436-5.147-0.862-7.723-1.276C501.995,170.123,503.761,167.486,505.54,164.855z M348.995,185.007l102,245l61,1l-163-364
			V185.007z"/>
	</g>
</g>
<g>
	<path class="st5" d="M348.688,377.994c-142.228,0-270.057-9.312-297.682-11.463v-90.544
		c29.697,2.381,156.659,11.848,297.682,11.848c134.25,0,267.189-9.541,297.678-11.874v90.548
		C617.883,368.623,483.941,377.994,348.688,377.994z"/>
	<path class="st7" d="M640.365,282.429v78.502c-37.408,2.693-163.972,11.063-291.678,11.063
		c-134.073,0-255.381-8.292-291.682-11.022v-78.495c38.806,2.995,159.046,11.358,291.682,11.358
		C475.19,293.835,600.535,285.377,640.365,282.429 M652.365,269.472c0,0-149.988,12.363-303.678,12.363
		c-162.093,0-303.682-12.363-303.682-12.363v102.598c0,0,141.589,11.924,303.682,11.924c153.69,0,303.678-11.924,303.678-11.924
		V269.472L652.365,269.472z"/>
</g>
<g>
	<g>
		<path class="st8" d="M104.459,329.52c8.306,0.518,16.612,1.01,24.92,1.475c0.165-2.943,0.33-5.887,0.495-8.83
			c-8.289-0.464-16.578-0.955-24.865-1.472C104.826,323.636,104.643,326.578,104.459,329.52z M215.09,329.33
			c-9.874-9.98-19.672-19.997-29.395-30.05c-0.722,17.151-1.444,34.303-2.166,51.454c3.424,0.144,6.848,0.284,10.272,0.419
			c0.368-9.316,0.736-18.631,1.104-27.947c9.819,10.041,19.714,20.046,29.685,30.013c0.545-17.168,1.09-34.337,1.635-51.505
			c-3.392-0.108-6.783-0.22-10.174-0.336C215.73,310.695,215.41,320.013,215.09,329.33z M259.05,324.843
			c-0.075,3.218-0.15,6.436-0.224,9.654c4.84,0.112,9.681,0.216,14.521,0.31c-2.318,4.699-7.526,8.666-14.156,8.513
			c-4.303-0.099-7.916-1.69-10.83-4.766c-2.956-3.078-4.372-6.733-4.258-10.96c0.114-4.228,1.724-7.799,4.818-10.72
			c3.074-2.942,6.73-4.362,10.978-4.264c4.165,0.096,7.751,1.683,10.77,4.766c2.469-2.357,4.934-4.716,7.394-7.077
			c-4.059-4.118-10.201-7.664-17.992-7.844c-0.01-0.031-0.019-0.063-0.029-0.094c-7.076-0.164-13.157,2.188-18.274,7.069
			c-5.158,4.9-7.856,10.852-8.064,17.87c-0.21,7.08,2.134,13.175,7.062,18.272c4.863,5.116,10.904,7.765,18.094,7.931
			c7.127,0.165,13.294-2.202,18.472-7.086c5.133-4.845,8.364-11.629,7.792-21.054C276.433,325.218,267.741,325.045,259.05,324.843z
			 M349.594,303.812c-11.672-0.003-23.344-0.058-35.015-0.165c-0.031,3.344-0.061,6.687-0.092,10.031
			c4.155,0.038,8.31,0.07,12.465,0.095c-0.081,13.448-0.162,26.895-0.243,40.343c3.436,0.021,6.873,0.037,10.31,0.049
			c0.046-13.448,0.092-26.896,0.138-40.344c4.145,0.014,8.29,0.022,12.434,0.023C349.592,310.499,349.593,307.156,349.594,303.812z
			 M348.086,354.186c3.701,0.002,7.402,0,11.103-0.008c1.147-2.555,2.292-5.11,3.435-7.665c5.826-0.018,11.651-0.048,17.477-0.091
			c1.169,2.544,2.341,5.086,3.515,7.629c3.711-0.031,7.423-0.067,11.134-0.108c-7.973-17.048-15.844-34.12-23.616-51.215
			C363.551,319.903,355.869,337.056,348.086,354.186z M375.99,337.512c-3.117,0.02-6.234,0.036-9.35,0.049
			c1.555-3.558,3.105-7.118,4.651-10.678C372.853,330.427,374.419,333.97,375.99,337.512z M413.205,343.63
			c-0.212-13.436-0.424-26.872-0.637-40.307c-3.382,0.053-6.765,0.102-10.147,0.147c0.222,16.79,0.444,33.58,0.665,50.371
			c10.277-0.136,20.554-0.311,30.83-0.527c-0.07-3.353-0.141-6.707-0.211-10.06C426.873,343.397,420.039,343.522,413.205,343.63z
			 M475.848,301.813c-3.903,0.125-7.806,0.244-11.709,0.357c-4.095,7.549-8.215,15.091-12.36,22.627
			c-0.19-7.425-0.381-14.849-0.571-22.274c-3.371,0.086-6.743,0.169-10.114,0.246c0.387,16.787,0.775,33.574,1.162,50.362
			c3.415-0.079,6.829-0.162,10.244-0.25c-0.181-7.039-0.361-14.079-0.542-21.118c5.123,6.913,10.272,13.815,15.447,20.708
			c4.165-0.122,8.329-0.252,12.494-0.387c-6.124-8.065-12.213-16.145-18.265-24.238
			C466.404,319.176,471.143,310.498,475.848,301.813z M502.481,322.598c-3.565-0.901-9.393-1.896-9.556-6.432
			c-0.1-2.794,2.148-5.199,4.97-5.305c2.776-0.104,5.199,2.126,5.306,4.889c3.342-0.838,6.682-1.68,10.021-2.527
			c-1.357-7.422-8.018-12.895-15.772-12.605c-8.502,0.319-15.176,7.387-14.897,15.879c0.227,6.856,5.864,11.714,12.141,13.579
			c3.559,1.08,9.815,1.481,9.995,6.075c0.11,2.794-2.923,5.236-5.754,5.342c0.016,0.015,0.032,0.029,0.048,0.044
			c-2.877,0.108-6.052-2.071-6.152-4.881c-3.362,0.834-6.725,1.664-10.091,2.49c1.404,7.459,8.747,12.932,16.658,12.634
			c8.611-0.321,16.061-7.501,15.701-15.988C514.805,328.787,508.951,324.184,502.481,322.598z M592.37,320.933
			c-8.287,0.509-16.576,0.991-24.866,1.447c0.162,2.943,0.324,5.887,0.486,8.83c8.308-0.457,16.616-0.941,24.922-1.45
			C592.732,326.817,592.551,323.875,592.37,320.933z"/>
	</g>
</g>
</svg>
