<?xml version="1.0" encoding="UTF-8"?>
<svg width="168px" height="152px" viewBox="0 0 168 152" version="1.1" xmlns="http://www.w3.org/2000/svg" xmlns:xlink="http://www.w3.org/1999/xlink">
    <!-- Generator: Sketch 48.2 (47327) - http://www.bohemiancoding.com/sketch -->
    <title>ngVikings</title>
    <desc>Created with Sketch.</desc>
    <defs></defs>
    <g id="Page-1" stroke="none" stroke-width="1" fill="none" fill-rule="evenodd">
        <g id="ngVikings" transform="translate(-1.000000, -1.000000)" fill-rule="nonzero">
            <g id="Group" transform="translate(84.998535, 76.700970) scale(-1, 1) rotate(-180.000000) translate(-84.998535, -76.700970) translate(0.332080, 0.701160)">
                <path d="M85.3200534,0.763864757 C84.126723,-0.374799063 83.3120584,0.882531127 82.4800605,1.31453005 C65.5627694,10.118508 48.6788116,18.9878192 31.7521873,27.7744639 C30.1375247,28.6131285 29.34686,29.5984593 29.1281938,31.451788 C28.3095292,38.3797707 27.3908649,45.2997534 26.3335342,52.1970695 C25.9868684,54.4517305 27.5708644,54.1543979 28.6788616,54.3370642 C35.8855103,55.5263945 43.1028256,56.6503917 50.3228075,57.7570556 C61.7414456,59.5090512 73.1667504,61.2290469 84.5880552,62.9610426 C84.5867219,55.1357288 84.5867219,47.3104151 84.5853885,39.483768 C81.5613961,38.6064368 78.542737,37.7051057 75.5080779,36.8624412 C74.2294144,36.5077754 73.3480833,36.146443 74.7360798,34.8064463 C78.0960714,31.5557878 80.9133977,27.7677972 84.5907219,24.8291379 C84.5893885,17.9144885 84.5693886,11.0011725 84.6040552,4.08652312 C84.6107218,2.95452595 84.1787229,1.67452915 85.3200534,0.763864757" id="Shape" fill="#E46825"></path>
                <path d="M84.5857885,39.483768 C84.5871219,47.3104151 84.5871219,55.1357288 84.5884552,62.9610426 C91.6791041,62.4770438 98.5830869,60.7783814 105.575069,59.6583842 C116.789708,57.863722 127.955013,55.7623939 139.169652,53.9543984 C141.768312,53.5343995 142.50031,52.7450681 142.036312,49.985075 C141.058981,44.1744229 140.552315,38.2811043 139.94165,32.4104523 C139.790984,30.9797892 139.321652,30.0731248 137.986988,29.34646 C120.624365,19.9011502 103.295075,10.3945073 85.9537851,0.907864397 C85.7711189,0.809197977 85.5324528,0.809197977 85.3204534,0.763864757 C84.1777896,1.67452915 84.6111218,2.95452595 84.6044552,4.08652312 C84.5684552,11.0011725 84.5897885,17.9144885 84.5911219,24.8291379 C89.5137762,30.6077901 94.4364306,36.385109 99.3590849,42.1637613 L98.7110866,42.8917594 C94.001765,41.7557623 89.2937768,40.6210984 84.5857885,39.483768" id="Shape" fill="#E16025"></path>
                <path d="M85.4919196,132.861135 C96.7038916,128.943811 107.965197,125.165154 119.098502,121.034497 C123.017159,119.582501 126.655817,119.555834 130.563807,120.663832 C143.529108,124.342489 153.141084,132.694468 161.553063,142.723777 C163.765057,145.362437 165.782386,148.165096 168.370379,151.517088 C169.31171,137.079791 166.727717,124.387822 158.447737,113.177184 C157.154407,111.426521 155.654411,109.822525 154.190415,108.202529 C149.21976,102.698543 143.309108,100.001217 135.595794,99.7678839 C120.213166,99.3038851 104.857205,97.8838886 89.4905763,96.8785578 C87.861247,96.7732247 86.2252511,96.7998913 84.5905885,96.7665581 C84.5892552,107.594531 84.5732552,118.423837 84.6065885,129.25181 C84.6105885,130.491807 84.1025897,131.931804 85.4919196,132.861135" id="Shape" fill="#2956A6"></path>
                <path d="M85.4919196,132.861135 C84.1025897,131.931804 84.6105885,130.491807 84.6065885,129.25181 C84.5732552,118.423837 84.5892552,107.594531 84.5905885,96.7665581 C69.861292,97.6958891 55.1319955,98.6185535 40.4040323,99.5585511 C36.0400432,99.8372171 31.6813875,100.215883 27.3133984,100.445216 C25.9520685,100.517215 24.8720712,100.921214 23.7254074,101.679879 C8.70277824,111.618521 2.10412807,126.055818 1.29079677,143.566441 C1.18413037,145.889102 0.828131263,148.298429 1.90812856,151.078422 C5.03078742,146.8011 7.91078022,142.839776 11.2427719,139.247785 C19.0120858,130.871806 27.7387307,123.975823 38.9587026,120.731832 C42.7600264,119.631834 46.2826843,119.586501 50.1013414,121.031831 C60.7146482,125.050487 71.4519547,128.747811 82.1665946,132.494469 C83.1839254,132.850468 84.2625893,133.937132 85.4919196,132.861135" id="Shape" fill="#2E5DAB"></path>
                <path d="M95.586961,89.4127098 C95.5242945,89.211377 95.461628,89.0113775 95.3989615,88.8100446 C103.502941,83.8300571 111.606921,78.8514029 119.9829,73.7034157 C120.640232,78.6674033 121.205564,83.199392 121.860229,87.7180474 C122.049562,89.0140441 121.689562,89.4407097 120.368232,89.4340431 C112.108253,89.3913765 103.84694,89.4127098 95.586961,89.4127098 Z M84.5843219,93.9113652 C103.534941,95.195362 122.488227,96.4553589 141.434846,97.8033555 C143.546841,97.9540218 144.185506,97.6833558 143.884174,95.2780285 C142.360177,83.1580588 141.004181,71.0154225 139.757517,58.8621195 C139.493518,56.2754593 138.302854,56.6114585 136.486859,56.9274577 C119.193569,59.9447835 101.888279,62.8887761 84.5843219,65.8527687 L84.5843219,93.9113652 Z" id="Shape" fill="#C32033"></path>
                <path d="M47.8684137,73.6595492 C56.2790593,78.8448696 64.4137056,83.860857 72.5496853,88.8768445 C64.1870395,89.4155098 56.1137264,89.4061765 48.0404132,89.4261764 C46.7524165,89.4301764 45.6830858,89.5221762 45.9817517,87.594181 C46.68175,83.0781923 47.219082,78.5382037 47.8684137,73.6595492 M84.5843219,93.9101652 L84.5843219,65.852902 C72.0950198,63.856907 59.6057177,61.856912 47.1164155,59.8675837 C42.0550949,59.060919 36.9817742,58.3235875 31.9324535,57.4475897 C30.3377908,57.1702571 29.6097926,57.33559 29.4097931,59.214252 C28.120463,71.3608883 26.7617998,83.5035246 25.2778035,95.6288276 C25.0271374,97.6714892 25.5618028,97.9794884 27.4151315,97.848822 C46.4684172,96.4954921 65.5270362,95.2128286 84.5843219,93.9101652" id="Shape" fill="#DE1D39"></path>
                <path d="M84.5857885,39.483768 C89.2937768,40.6210984 94.001765,41.7557623 98.7110866,42.8917594 L99.3590849,42.1637613 C94.4364306,36.385109 89.5137762,30.6077901 84.5911219,24.8291379 C80.9137977,27.7677972 78.0964714,31.5557878 74.7351465,34.8064463 C73.3484833,36.146443 74.2284811,36.5077754 75.5071446,36.8624412 C78.543137,37.7051057 81.5604628,38.6064368 84.5857885,39.483768" id="Shape" fill="#FDFAF7"></path>
                <path d="M95.586961,89.4127098 C103.84694,89.4127098 112.108253,89.3913765 120.368232,89.4340431 C121.689562,89.4407097 122.049562,89.0140441 121.860229,87.7180474 C121.205564,83.199392 120.640232,78.6674033 119.9829,73.7034157 C111.606921,78.8514029 103.502941,83.8300571 95.3989615,88.8100446 C95.461628,89.0113775 95.5242945,89.211377 95.586961,89.4127098" id="Shape" fill="#FDFAFC"></path>
                <path d="M47.8684137,73.6595492 C47.219082,78.5382037 46.68175,83.0781923 45.9817517,87.594181 C45.6830858,89.5221762 46.7524165,89.4301764 48.0404132,89.4261764 C56.1137264,89.4061765 64.1870395,89.4155098 72.5496853,88.8768445 C64.4137056,83.860857 56.2790593,78.8448696 47.8684137,73.6595492" id="Shape" fill="#FDFAFB"></path>
            </g>
        </g>
    </g>
</svg>